<?xml version="1.0" encoding="UTF-8"?>
<svg id="_Слой_2" data-name="Слой 2" xmlns="http://www.w3.org/2000/svg" viewBox="0 0 1920 1080">
  <defs>
    <style>
      .cls-1 {
        font-size: 120.16px;
      }

      .cls-1, .cls-2, .cls-3, .cls-4, .cls-5, .cls-6, .cls-7, .cls-8, .cls-9, .cls-10 {
        fill: #fff;
      }

      .cls-1, .cls-11, .cls-3, .cls-4, .cls-6, .cls-7, .cls-8, .cls-9, .cls-10 {
        isolation: isolate;
      }

      .cls-1, .cls-3, .cls-4, .cls-6, .cls-7, .cls-8, .cls-9, .cls-10 {
        font-family: SFProDisplay-Regular, 'SF Pro Display';
      }

      .cls-2 {
        font-family: SFProDisplay-Bold, 'SF Pro Display';
        font-size: 233.15px;
        font-weight: 700;
      }

      .cls-12, .cls-5 {
        stroke-width: 0px;
      }

      .cls-12, .cls-13 {
        fill: none;
      }

      .cls-3 {
        font-size: 327.61px;
      }

      .cls-4 {
        font-size: 272.87px;
      }

      .cls-6 {
        font-size: 103.86px;
      }

      .cls-7 {
        font-size: 89.85px;
      }

      .cls-8 {
        font-size: 172.52px;
      }

      .cls-9 {
        font-size: 149.12px;
      }

      .cls-13 {
        stroke: #fff;
        stroke-linecap: round;
        stroke-miterlimit: 10;
        stroke-width: 5px;
      }

      .cls-10 {
        font-size: 82.72px;
      }

      .cls-14 {
        letter-spacing: 0em;
      }
    </style>
  </defs>
  <rect class="cls-12" width="1920" height="1079"/>
  <rect class="cls-12" x="496.4" y="99" width="927.21" height="639.45"/>
  <g>
    <path class="cls-5" d="m1088.25,282.79c1.76.6,3.27,1.11,4.78,1.62,10.5,3.59,20.71,7.83,30.23,13.57,5.87,3.54,11.36,7.57,15.91,12.74,4.21,4.77,7.3,10.1,8.03,16.57.69,6.24-1.06,11.84-4.41,17.02-3.47,5.38-8.08,9.66-13.22,13.39-11,7.98-23.3,13.35-36.05,17.79-4.86,1.69-9.82,3.07-14.71,4.71-1.16.4-2.39,1.02-3.25,1.89-18.49,18.74-39.99,32.89-64.52,42.41-17.71,6.88-36.08,10.9-55.04,11.94-18.06,1-36.01.15-53.77-3.68-21.54-4.67-41.59-12.92-60.21-24.72-15.17-9.62-28.31-21.59-40.43-34.77-.79-.87-1.87-1.57-2.95-2.05-9.39-4.16-18.44-8.86-26.36-15.51-3.86-3.25-7.3-6.89-9.87-11.28-5.13-8.76-5.18-17.58-.09-26.38,3.41-5.91,8.27-10.49,13.71-14.48,11.06-8.12,23.51-13.49,36.35-18.05,1.15-.41,2.3-.81,3.45-1.23.1-.04.17-.18.41-.46-.46-1.06-.91-2.25-1.47-3.39-8.44-16.93-15.49-34.38-19.31-52.99-3.5-17.02-4.59-34.17-2.11-51.44,1.38-9.59,5.52-18.08,11.48-25.6,5.97-7.55,14.21-8.95,23.19-7.57,5.96.92,11.28,3.58,16.19,6.97,6.61,4.57,13.15,9.26,19.67,13.97,11.14,8.04,22.92,15.01,35.08,21.38,1.65.87,3.39,1.57,5.01,2.48,6.42,3.62,12.87,4.6,20.27,2.52,9.16-2.6,18.76-3.4,28.3-3.3,11.42.12,22.7,1.8,33.79,4.57,1.84.46,3.49.38,5.26-.26,9.49-3.43,18.2-8.43,26.93-13.38,11.84-6.71,22.73-14.84,33.8-22.7,4.5-3.2,9.13-6.27,13.97-8.93,5.69-3.13,11.91-4.4,18.47-3.62,6.48.78,11.64,3.71,15.54,9.02,7.9,10.77,11.2,22.92,11.69,36.14.95,25.81-4.16,50.41-14.14,74.1-2.65,6.28-5.65,12.41-8.49,18.61-.32.69-.67,1.38-1.13,2.33l.03.04Zm-270.58-8.59c1.15-5.74,2.26-11.54,3.48-17.3,1.28-6.1,2.39-12.26,4.03-18.28,3.48-12.71,7.33-25.34,10.88-38.03,1.55-5.52,2.58-11.16,2.14-16.97-.29-3.75-1.41-7.2-4-10.03-3.3-3.58-6.1-3.68-9.6-.37-.7.67-1.37,1.37-1.97,2.12-5.24,6.64-8.21,14.22-9.16,22.6-.18,1.59-.01,3.21-.01,4.82,0,1.7-.93,2.85-2.44,2.9-1.7.06-2.66-.88-2.84-2.52-.14-1.28-.2-2.57-.12-3.85.69-10.24,4.21-19.43,10.61-27.46,1-1.25,2.16-2.39,3.39-3.41,4.76-3.95,9.81-3.9,14.52.12,3.79,3.24,5.84,7.46,6.64,12.32,1.13,6.89.03,13.63-1.79,20.23-5.27,19.11-10.31,38.26-14.25,57.7-2.06,10.15-4.23,20.31-4.46,30.72-.35,15.33,2.23,30.23,7.09,44.77.55,1.62,1.43,2.52,3.01,3.13,12.23,4.78,24.96,7.66,37.84,9.95,22.85,4.05,45.94,6.04,69.11,6.74,32.29.98,64.48-.09,96.44-5.22,11.7-1.88,23.29-4.34,34.4-8.59.9-.35,1.93-1.19,2.26-2.05,4.58-11.7,7.14-23.88,8.33-36.37,1.27-13.31-.78-26.32-3.36-39.29-4.04-20.21-9.04-40.17-14.64-59.99-1.73-6.09-2.89-12.29-2.52-18.67.35-5.86,2.21-11.1,6.69-15.13,4.8-4.32,10.03-4.41,14.96-.26,1.13.95,2.19,2.01,3.12,3.15,5.72,6.93,9.02,14.96,10.36,23.77.4,2.58.32,5.26.22,7.88-.06,1.53-1.18,2.44-2.78,2.33-1.59-.12-2.38-1.13-2.46-2.7-.01-.32.05-.64.05-.96.1-10.64-3.44-19.96-10.4-27.92-4.11-4.69-7.94-4.32-11.45.9-1.13,1.68-1.98,3.64-2.43,5.61-.51,2.23-.83,4.64-.51,6.88.75,5.46,1.7,10.92,2.97,16.29,4.14,17.52,10.93,34.34,13.89,52.18.98,5.96,2.08,11.89,3.15,17.83.04.19.14.37.29.74.26-.45.41-.67.51-.9,1.5-3.27,3.04-6.54,4.49-9.83,10.9-24.75,16.72-50.48,15.31-77.68-.59-11.23-3.63-21.47-10.1-30.73-3.59-5.14-8.44-7.53-14.57-7.67-6.22-.14-11.78,1.96-16.91,5.22-4.18,2.66-8.26,5.49-12.24,8.43-17.01,12.58-34.68,24.07-54.03,32.78-.22.1-.38.31-.59.46,4.62,1.78,9.21,3.47,13.72,5.31,3.16,1.29,6.23,2.78,9.3,4.26,1.48.73,1.97,2.26,1.25,3.57-.78,1.39-2,1.75-3.45,1.21-.67-.24-1.28-.6-1.92-.91-19.75-9.49-40.57-14.98-62.46-15.7-15.77-.52-31.18,2.39-46.12,7.32-7.62,2.51-14.95,5.87-22.39,8.91-2.15.88-3.57.7-4.35-.82-.81-1.57-.09-2.97,2.11-4.02,1.69-.81,3.35-1.65,5.08-2.37,5.65-2.3,11.33-4.55,17.05-6.85-.32-.18-.67-.43-1.06-.61-13.22-6-25.76-13.25-37.74-21.41-8.57-5.83-16.89-12-25.39-17.93-4.14-2.89-8.57-5.29-13.58-6.25-7.42-1.42-14.4-.79-19.4,5.72-5.54,7.21-9.28,15.27-10.41,24.39-1.74,14.03-1.14,28.01,1.18,41.92,3.15,18.95,9.81,36.73,18.11,53.85l-.06.03Zm269.2,14.69c0,1.46.08,2.56,0,3.63-.51,6.54-.86,13.1-1.68,19.59-.32,2.52-.19,4.3,2.12,5.65.86.5,1.52,1.38,2.19,2.16,4.51,5.27,4.51,11.32-.33,16.29-2.03,2.1-4.49,3.88-7,5.4-5.87,3.57-12.35,5.76-18.93,7.62-21.17,6-42.88,8.53-64.75,10.03-31.01,2.12-62,1.71-92.96-1.13-19.7-1.8-39.25-4.54-58.41-9.64-9.03-2.4-17.99-5.13-26.01-10.06-3.17-1.96-6.19-4.45-8.62-7.28-3.62-4.22-3.43-9.48.04-13.84,1.46-1.84,3.48-3.22,5.12-4.92.52-.54.96-1.46.92-2.17-.23-3.59-.73-7.17-.93-10.77-.17-2.93-.04-5.87-.04-9.02-.95.22-1.38.27-1.79.41-9.45,3.24-18.77,6.85-27.33,12.06-4.92,2.99-9.54,6.54-14.08,10.1-2.03,1.6-3.72,3.76-5.26,5.88-5.97,8.24-5.87,16.59.19,24.8,4.08,5.52,9.43,9.64,15.18,13.25,9.94,6.22,20.69,10.67,31.79,14.31,28.92,9.52,58.77,14.11,88.99,16.57,31.88,2.61,63.78,2.44,95.65-.33,25.1-2.19,49.89-6.19,74.23-12.75,14.76-3.98,29.13-9.05,42.47-16.68,6.8-3.88,13.17-8.34,18.12-14.53,7.29-9.12,7.25-18.37-.08-27.43-4.31-5.33-9.73-9.34-15.55-12.85-9.53-5.76-19.77-9.91-30.28-13.45-.9-.31-1.82-.58-3.02-.95l.04.04Z"/>
    <path class="cls-5" d="m1014.83,343.69c-26.5.08-48.06-21.38-48.16-47.93-.1-26.6,21.42-48.24,48.01-48.29,26.49-.05,48.1,21.45,48.19,47.95.1,26.58-21.42,48.21-48.04,48.28h0Zm-2.9-19.43c13.62-.03,24.67-11.1,24.66-24.73,0-13.59-11.09-24.68-24.71-24.71-13.7-.03-24.8,11.13-24.73,24.85.06,13.65,11.11,24.62,24.77,24.59h.01Z"/>
    <path class="cls-5" d="m889.39,247.47c26.59-.03,48.14,21.52,48.14,48.18s-21.52,48.02-48.05,48.05c-26.59.03-48.18-21.58-48.16-48.15.03-26.49,21.59-48.04,48.07-48.06h0Zm27.65,52.04c-.03-13.63-11.1-24.68-24.72-24.67-13.62.01-24.71,11.1-24.72,24.7,0,13.71,11.11,24.8,24.84,24.75,13.65-.05,24.63-11.1,24.59-24.76h.01Z"/>
  </g>
  <polyline class="cls-12" points="902.32 369.69 1066.02 369.69 1066.02 533.39 902.32 533.39"/>
  <line class="cls-13" x1="851.29" y1="404.02" x2="738.75" y2="567.72"/>
  <line class="cls-13" x1="1046.41" y1="400.01" x2="1158.95" y2="563.71"/>
  <path class="cls-13" d="m878.15,421.92c-15.77,28.14-31.55,56.27-47.32,84.41"/>
  <path class="cls-13" d="m968.95,456.45c5.97,38.79,11.93,77.59,17.9,116.38"/>
  <path class="cls-13" d="m1012.44,415.53c17.48,36.23,34.95,72.48,52.44,108.71"/>
  <path class="cls-13" d="m924.19,457.73c-13.21,56.69-26.43,113.4-39.65,170.09"/>
  <path class="cls-13" d="m1016.27,493.54c10.65,28.14,21.32,56.27,31.97,84.41"/>
  <path class="cls-13" d="m875.59,493.54l-30.69,69.06"/>
  <g class="cls-11">
    <text class="cls-9" transform="translate(604.07 203.09) rotate(-10.3)"><tspan x="0" y="0">?</tspan></text>
  </g>
  <g class="cls-11">
    <text class="cls-3" transform="translate(477.19 711.38) rotate(-11.36)"><tspan x="0" y="0">?</tspan></text>
  </g>
  <g class="cls-11">
    <text class="cls-4" transform="translate(1296.79 711.16) rotate(6.83)"><tspan x="0" y="0">?</tspan></text>
  </g>
  <g class="cls-11">
    <text class="cls-6" transform="translate(650.66 214.11) rotate(15.71)"><tspan x="0" y="0">?</tspan></text>
  </g>
  <g class="cls-11">
    <text class="cls-7" transform="translate(1171.23 213.72) rotate(15.71)"><tspan x="0" y="0">?</tspan></text>
  </g>
  <g class="cls-11">
    <text class="cls-8" transform="translate(1296.66 355.67) rotate(10.3)"><tspan x="0" y="0">?</tspan></text>
  </g>
  <g class="cls-11">
    <text class="cls-1" transform="translate(1276.81 393.64) rotate(-15.71)"><tspan x="0" y="0">?</tspan></text>
  </g>
  <g class="cls-11">
    <text class="cls-10" transform="translate(697.96 451.21) rotate(-15.71)"><tspan x="0" y="0">?</tspan></text>
  </g>
  <text class="cls-2" transform="translate(733.34 897.6)"><tspan class="cls-14" x="0" y="0">4</tspan><tspan x="150.5" y="0">04</tspan></text>
</svg>