<?xml version="1.0" encoding="UTF-8"?>
<svg id="_Слой_1" data-name="Слой 1" xmlns="http://www.w3.org/2000/svg" viewBox="0 0 128 128">
  <defs>
    <style>
      .cls-1 {
        fill: none;
      }

      .cls-1, .cls-2 {
        stroke-width: 0px;
      }

      .cls-2 {
        fill: #fff;
      }
    </style>
  </defs>
  <rect class="cls-1" width="128" height="128"/>
  <g>
    <path class="cls-2" d="m103.49,49.1c.44.04,1.1.1,1.88.2,3.51.42,6.97,1.06,10.29,2.33,1.97.75,3.83,1.72,5.38,3.19,2.35,2.24,2.98,5.06,1.81,8.1-.7,1.8-1.8,3.33-3.09,4.74-2.65,2.9-5.79,5.17-9.11,7.22-5.85,3.62-12.1,6.42-18.53,8.84-10.38,3.91-21.06,6.74-31.98,8.7-8.46,1.52-16.97,2.48-25.57,2.57-5.48.06-10.94-.23-16.32-1.36-2.76-.58-5.47-1.34-7.93-2.78-1.04-.61-2.05-1.32-2.91-2.16-2.18-2.13-2.71-4.71-1.71-7.59.64-1.84,1.74-3.4,3.02-4.83,2.34-2.62,5.11-4.72,8.04-6.62,4.12-2.68,8.48-4.88,12.97-6.86.07-.03.14-.05.23-.09.03,1.45.1,2.96.22,4.53.07.93.16,1.84.25,2.72-.34.2-.84.49-1.44.85-2.72,1.63-4.32,2.6-6.07,4.02-1.75,1.42-2.51,2.38-3.07,3.23-.56.84-.98,1.74-.91,2.79.05.78.42,1.42.96,1.97.83.83,1.85,1.36,2.93,1.78,2.35.91,4.82,1.33,7.31,1.58,5.64.57,11.27.35,16.9-.21,12.52-1.25,24.72-3.93,36.63-7.99,5.76-1.96,11.38-4.25,16.67-7.3,2.44-1.41,4.81-2.94,6.75-5.01.7-.75,1.34-1.61,1.81-2.52.86-1.64.49-3.06-.95-4.22-1.41-1.14-3.1-1.69-4.82-2.13-.69-.18-1.39-.31-1.99-.45"/>
    <path class="cls-2" d="m96.51,59.41c3.28-6.64,5.24-13.61,4.86-21.14-.13-2.5-.75-4.81-2.05-6.99-1.52-2.55-3.74-2.78-5.75-2.16-1.01.31-1.99.82-2.87,1.4-2.09,1.4-4.1,2.93-6.18,4.34-2.91,1.98-5.95,3.74-9.16,5.18-.07.03-.13.07-.19.1,1.39.56,2.77,1.1,4.14,1.66.45.18.88.4,1.31.61.46.22.61.56.43.93-.18.36-.54.45-1,.22-2.79-1.37-5.71-2.36-8.73-3.08-7.49-1.78-14.65-.63-21.63,2.33-.56.24-1.1.51-1.65.76-.46.21-.82.12-.99-.25-.17-.37-.02-.71.45-.92,1.79-.78,3.6-1.54,5.37-2.29.03.04,0-.01-.03-.03-4.69-2.1-8.97-4.89-13.09-7.93-1.06-.78-2.15-1.54-3.28-2.22-1.39-.85-2.89-1.28-4.54-1.02-1.1.17-1.97.71-2.63,1.61-1.65,2.26-2.42,4.79-2.57,7.57-.33,6.42.99,12.52,3.52,18.39.43.99.88,1.98,1.42,2.95.06-.56.08-1.12.2-1.67.74-3.53,1.49-7.05,2.58-10.49.83-2.62,1.41-5.32,2.02-8,.23-.98.21-2.04-.21-2.98-.25-.55-.62-1.08-1.05-1.5-.54-.53-1.1-.52-1.67,0-.47.42-.92.9-1.26,1.43-1.14,1.79-1.84,3.73-1.72,5.9.02.44-.21.72-.59.74-.38.02-.69-.23-.68-.66.02-.8.02-1.62.17-2.41.37-1.92,1.15-3.67,2.42-5.19.18-.21.38-.42.58-.6,1.31-1.19,2.71-1.14,3.96.12.95.97,1.35,2.17,1.42,3.51.09,1.78-.31,3.49-.79,5.19-1.48,5.19-2.74,10.43-3.72,15.74-1.47,7.96.25,15.29,4.45,22.1.87,1.41,1.92,2.71,2.93,4.11-.48,0-.98.02-1.47-.01-.12,0-.24-.18-.33-.3-3.77-4.7-6.15-10.03-7.01-15.99-.25-1.7-.33-3.44-.36-5.16-.01-.83-.21-1.54-.57-2.24-1.81-3.62-3.37-7.35-4.35-11.29-1.11-4.43-1.48-8.92-.98-13.47.28-2.51,1.28-4.74,2.8-6.72,1.46-1.89,3.48-2.25,5.7-1.9,1.44.23,2.72.87,3.9,1.7,2.12,1.47,4.19,3.02,6.33,4.46,2.97,2,6.05,3.8,9.35,5.23.91.4,1.76.46,2.74.22,2.52-.63,5.11-.98,7.71-.96,2.77.02,5.51.44,8.21,1.11.43.11.81.08,1.22-.06,2.31-.83,4.42-2.05,6.55-3.25,2.86-1.62,5.49-3.59,8.16-5.49,1.07-.76,2.18-1.5,3.33-2.13,1.37-.76,2.87-1.07,4.46-.88,1.58.19,2.85.9,3.78,2.21,1.58,2.22,2.51,4.66,2.72,7.39.51,6.7-.73,13.1-3.33,19.25-.65,1.55-1.38,3.06-2.1,4.58-.35.75-.59,1.47-.57,2.34.07,2.65-.28,5.27-.87,7.86-.09.38-.24.61-.6.74-.33.12-.65.29-1.04.47.15-.61.3-1.16.43-1.72.6-2.59.99-5.22.77-7.87-.2-2.39-.61-4.78-1.06-7.14-.9-4.7-2.15-9.33-3.42-13.94-.44-1.59-.71-3.22-.44-4.89.19-1.19.69-2.22,1.63-3.01,1.13-.95,2.34-.97,3.47-.02,1.27,1.06,2.04,2.45,2.62,3.96.54,1.39.88,2.82.76,4.33-.04.48-.28.74-.67.73-.4,0-.64-.3-.62-.76.1-2.36-.69-4.43-2.03-6.31-.28-.39-.63-.73-1-1.03-.54-.44-1.01-.43-1.57,0-.91.68-1.28,1.65-1.38,2.75-.12,1.42.13,2.8.51,4.15.86,3.07,1.79,6.11,2.63,9.19.42,1.56.71,3.15,1.04,4.73.27,1.28.51,2.57.76,3.84Z"/>
    <path class="cls-2" d="m79.2,52.96c6.42.01,11.63,5.26,11.6,11.67-.03,6.41-5.24,11.6-11.64,11.58-6.43-.02-11.62-5.24-11.6-11.67.03-6.41,5.23-11.6,11.64-11.59Zm-.72,18.56c3.29,0,5.96-2.67,5.97-5.96,0-3.29-2.66-5.97-5.95-5.99-3.31-.01-6,2.67-5.99,5.99,0,3.3,2.67,5.96,5.97,5.96Z"/>
    <path class="cls-2" d="m48.89,52.96c6.42-.02,11.63,5.18,11.64,11.63.01,6.4-5.18,11.61-11.59,11.63-6.41.02-11.64-5.2-11.65-11.62,0-6.4,5.2-11.62,11.59-11.63Zm6.69,12.6c0-3.3-2.66-5.98-5.95-5.99-3.29,0-5.98,2.66-5.99,5.94-.02,3.31,2.66,6.01,5.98,6,3.3,0,5.96-2.66,5.97-5.96Z"/>
    <path class="cls-2" d="m86.83,87.09c-2.17,2.2-4.61,4.03-7.3,5.53-4.7,2.63-9.75,4.04-15.12,4.21-2.62.08-5.21-.34-7.75-.99-.87-.22-1.73-.5-2.59-.76-.13-.04-.25-.1-.46-.2.86-.15,1.62-.29,2.39-.4.25-.03.53,0,.78.07,2.06.52,4.14.86,6.26.96,2.98.14,5.89-.31,8.75-1.1,4.42-1.21,8.41-3.29,11.94-6.22.1-.08.19-.18.3-.22.93-.3,1.86-.58,2.79-.86v-.02Z"/>
    <polygon class="cls-2" points="86.82 87.11 86.81 87.08 86.83 87.09 86.82 87.11"/>
  </g>
</svg>