<?xml version="1.0" encoding="UTF-8"?>
<svg id="_Слой_2" data-name="Слой 2" xmlns="http://www.w3.org/2000/svg" viewBox="0 0 128 128">
  <defs>
    <style>
      .cls-1 {
        fill: none;
      }

      .cls-1, .cls-2 {
        stroke-width: 0px;
      }

      .cls-2 {
        fill: #fff;
      }
    </style>
  </defs>
  <g>
    <path class="cls-2" d="m105.71,57.5c.54.18,1.01.34,1.47.5,3.22,1.1,6.36,2.4,9.28,4.17,1.8,1.09,3.49,2.32,4.89,3.91,1.29,1.47,2.24,3.1,2.47,5.09.21,1.91-.33,3.64-1.35,5.23-1.07,1.65-2.48,2.96-4.06,4.11-3.38,2.45-7.16,4.1-11.07,5.46-1.49.52-3.02.94-4.51,1.45-.36.12-.73.32-1,.58-5.68,5.75-12.28,10.1-19.81,13.02-5.44,2.11-11.08,3.35-16.9,3.67-5.55.3-11.06.05-16.51-1.13-6.62-1.43-12.77-3.97-18.49-7.59-4.66-2.95-8.69-6.63-12.41-10.68-.24-.27-.57-.48-.91-.63-2.88-1.28-5.66-2.72-8.09-4.77-1.19-1-2.24-2.12-3.03-3.46-1.57-2.69-1.59-5.4-.03-8.1,1.05-1.81,2.54-3.22,4.21-4.45,3.4-2.49,7.22-4.14,11.16-5.54.35-.13.71-.25,1.06-.38.03-.01.05-.06.13-.14-.14-.33-.28-.69-.45-1.04-2.59-5.2-4.76-10.56-5.93-16.27-1.07-5.23-1.41-10.49-.65-15.79.42-2.94,1.7-5.55,3.53-7.86,1.83-2.32,4.36-2.75,7.12-2.32,1.83.28,3.46,1.1,4.97,2.14,2.03,1.4,4.04,2.84,6.04,4.29,3.42,2.47,7.04,4.61,10.77,6.57.51.27,1.04.48,1.54.76,1.97,1.11,3.95,1.41,6.22.77,2.81-.8,5.76-1.04,8.69-1.01,3.51.04,6.97.55,10.38,1.4.57.14,1.07.12,1.61-.08,2.92-1.05,5.59-2.59,8.27-4.11,3.64-2.06,6.98-4.56,10.38-6.97,1.38-.98,2.8-1.93,4.29-2.74,1.75-.96,3.66-1.35,5.67-1.11,1.99.24,3.58,1.14,4.77,2.77,2.43,3.31,3.44,7.04,3.59,11.1.29,7.93-1.28,15.48-4.34,22.75-.81,1.93-1.74,3.81-2.61,5.71-.1.21-.2.42-.34.71Zm-83.09-2.64c.35-1.76.7-3.54,1.07-5.31.39-1.87.73-3.77,1.24-5.61,1.07-3.91,2.25-7.78,3.34-11.68.48-1.7.79-3.43.65-5.21-.09-1.15-.43-2.21-1.23-3.08-1.01-1.1-1.87-1.13-2.95-.11-.21.2-.42.42-.6.65-1.61,2.04-2.52,4.37-2.81,6.94-.06.49,0,.99,0,1.48,0,.52-.29.88-.75.89-.52.02-.82-.27-.87-.77-.04-.39-.06-.79-.04-1.18.21-3.15,1.29-5.97,3.26-8.43.31-.38.66-.74,1.04-1.05,1.46-1.21,3.01-1.2,4.46.04,1.16.99,1.79,2.29,2.04,3.78.35,2.12,0,4.19-.55,6.21-1.62,5.87-3.17,11.75-4.37,17.72-.63,3.12-1.3,6.24-1.37,9.43-.11,4.71.68,9.28,2.18,13.75.17.5.44.77.92.96,3.76,1.47,7.66,2.35,11.62,3.05,7.02,1.25,14.1,1.85,21.22,2.07,9.92.3,19.8-.03,29.62-1.6,3.59-.58,7.15-1.33,10.56-2.64.28-.11.59-.36.7-.63,1.41-3.59,2.19-7.33,2.56-11.17.39-4.09-.24-8.08-1.03-12.06-1.24-6.2-2.78-12.33-4.5-18.42-.53-1.87-.89-3.77-.77-5.73.11-1.8.68-3.41,2.05-4.65,1.47-1.33,3.08-1.35,4.59-.08.35.29.67.62.96.97,1.76,2.13,2.77,4.59,3.18,7.3.12.79.1,1.61.07,2.42-.02.47-.36.75-.85.71-.49-.04-.73-.34-.75-.83,0-.1.01-.2.02-.3.03-3.27-1.06-6.13-3.19-8.57-1.26-1.44-2.44-1.33-3.52.28-.34.51-.61,1.12-.75,1.72-.16.68-.25,1.43-.16,2.11.23,1.68.52,3.35.91,5,1.27,5.38,3.36,10.54,4.27,16.02.3,1.83.64,3.65.97,5.48.01.06.04.11.09.23.08-.14.12-.2.16-.27.46-1.01.93-2.01,1.38-3.02,3.35-7.6,5.13-15.5,4.7-23.85-.18-3.45-1.12-6.59-3.1-9.44-1.1-1.58-2.59-2.31-4.47-2.36-1.91-.04-3.62.6-5.19,1.6-1.28.82-2.54,1.68-3.76,2.59-5.22,3.86-10.65,7.39-16.59,10.06-.07.03-.12.09-.18.14,1.42.55,2.83,1.06,4.22,1.63.97.4,1.91.85,2.86,1.31.46.22.6.7.38,1.1-.24.43-.61.54-1.06.37-.2-.07-.39-.18-.59-.28-6.06-2.92-12.46-4.6-19.18-4.82-4.84-.16-9.57.74-14.16,2.25-2.34.77-4.59,1.8-6.88,2.74-.66.27-1.1.22-1.34-.25-.25-.48-.03-.91.65-1.23.52-.25,1.03-.51,1.56-.72,1.74-.71,3.48-1.4,5.23-2.1-.1-.06-.21-.13-.32-.19-4.06-1.84-7.91-4.07-11.59-6.57-2.63-1.79-5.19-3.68-7.8-5.51-1.27-.89-2.63-1.63-4.17-1.92-2.28-.44-4.42-.24-5.96,1.76-1.7,2.21-2.85,4.69-3.2,7.49-.53,4.31-.35,8.6.36,12.87.97,5.82,3.01,11.28,5.56,16.54Zm82.66,4.51c0,.45.02.78,0,1.12-.16,2.01-.26,4.02-.51,6.02-.1.77-.06,1.32.65,1.73.26.15.47.43.67.66,1.39,1.62,1.39,3.48-.1,5-.63.64-1.38,1.19-2.15,1.66-1.8,1.09-3.79,1.77-5.81,2.34-6.5,1.84-13.17,2.62-19.88,3.08-9.52.65-19.04.53-28.54-.34-6.05-.56-12.05-1.4-17.93-2.96-2.77-.74-5.53-1.58-7.99-3.09-.98-.6-1.9-1.37-2.65-2.24-1.11-1.3-1.05-2.91.01-4.25.45-.56,1.07-.99,1.57-1.51.16-.16.3-.45.28-.67-.07-1.1-.23-2.2-.29-3.31-.05-.9-.01-1.8-.01-2.77-.29.07-.42.08-.55.13-2.9.99-5.76,2.11-8.39,3.7-1.51.92-2.93,2.01-4.32,3.1-.63.49-1.14,1.15-1.61,1.81-1.83,2.53-1.8,5.09.06,7.61,1.25,1.7,2.89,2.96,4.66,4.07,3.05,1.91,6.35,3.27,9.76,4.39,8.88,2.92,18.05,4.33,27.33,5.09,9.79.8,19.58.75,29.37-.1,7.71-.67,15.32-1.9,22.79-3.91,4.53-1.22,8.94-2.78,13.04-5.12,2.09-1.19,4.04-2.56,5.56-4.46,2.24-2.8,2.23-5.64-.02-8.42-1.32-1.64-2.99-2.87-4.77-3.95-2.92-1.77-6.07-3.04-9.3-4.13-.28-.09-.56-.18-.93-.29Z"/>
    <path class="cls-2" d="m83.17,76.2c-8.14.02-14.76-6.57-14.79-14.72-.03-8.17,6.58-14.81,14.74-14.83,8.13-.02,14.77,6.59,14.8,14.72.03,8.16-6.58,14.8-14.75,14.83Zm-.89-5.97c4.18,0,7.57-3.41,7.57-7.59,0-4.17-3.41-7.58-7.59-7.59-4.2,0-7.61,3.42-7.6,7.63.02,4.19,3.41,7.56,7.61,7.55Z"/>
    <path class="cls-2" d="m44.65,46.65c8.17,0,14.78,6.61,14.78,14.79,0,8.14-6.61,14.75-14.75,14.75-8.16,0-14.79-6.62-14.79-14.79,0-8.13,6.63-14.75,14.76-14.76Zm8.49,15.98c0-4.19-3.41-7.58-7.59-7.58-4.18,0-7.59,3.41-7.59,7.58,0,4.21,3.41,7.61,7.63,7.6,4.19-.02,7.56-3.41,7.55-7.6Z"/>
  </g>
  <rect class="cls-1" width="128" height="128"/>
</svg>