<?xml version="1.0" encoding="UTF-8"?>
<svg xmlns="http://www.w3.org/2000/svg" viewBox="0 0 128 128">
  <defs>
    <style>
      .cls-1 {
        fill: none;
      }

      .cls-1, .cls-2 {
        stroke-width: 0px;
      }

      .cls-2 {
        fill: #fff;
      }
    </style>
  </defs>
  <g id="_Слой_2" data-name="Слой 2">
    <rect class="cls-1" width="128" height="128"/>
  </g>
  <g id="_Слой_1" data-name="Слой 1">
    <g>
      <path class="cls-2" d="m114.55,128.09c-2.79-4.84-5.58-9.68-8.37-14.53-6.85-11.91-13.71-23.82-20.56-35.74-.07-.12-.15-.24-.25-.41-4.78,2.57-9.85,4.22-15.26,4.96.03.18.04.33.07.48,1.6,9.13,3.2,18.25,4.8,27.38.02.09.03.19.05.28.1.58-.12.97-.58,1.04-.47.07-.78-.2-.89-.8-.21-1.16-.41-2.31-.61-3.47-1.42-8.09-2.84-16.19-4.26-24.28-.02-.14-.06-.27-.1-.45-3.29.27-6.56.28-9.9,0-.12.68-.25,1.35-.37,2.02-1.52,8.66-3.04,17.33-4.56,25.99-.13.76-.42,1.06-.93.98-.5-.08-.68-.47-.55-1.23,1.6-9.14,3.21-18.28,4.81-27.43.03-.15.05-.31.08-.52-5.39-.74-10.46-2.38-15.27-4.97-.12.2-.22.36-.32.54-9.52,16.55-19.05,33.11-28.57,49.66-.09.16-.19.32-.29.48h-1.69c1.18-2.07,2.36-4.13,3.54-6.19,8.58-14.91,17.16-29.82,25.73-44.74.08-.15.16-.3.26-.48-.5-.31-.97-.6-1.45-.9-3.7-2.33-6.89-5.25-9.83-8.46-.19-.21-.46-.38-.72-.5-2.28-1.01-4.49-2.16-6.41-3.78-.95-.8-1.8-1.7-2.42-2.79-1.22-2.11-1.23-4.23-.02-6.34.87-1.53,2.14-2.69,3.55-3.7,2.63-1.89,5.58-3.16,8.61-4.23.31-.11.62-.22.99-.35-.12-.3-.22-.59-.36-.86-1.99-3.99-3.67-8.1-4.62-12.47-.93-4.27-1.22-8.58-.61-12.93.33-2.33,1.34-4.4,2.78-6.24,1.46-1.86,3.47-2.21,5.67-1.86,1.43.22,2.71.86,3.9,1.67,1.62,1.12,3.22,2.27,4.83,3.42,2.89,2.08,5.95,3.89,9.12,5.5.22.11.46.2.68.33,1.53.87,3.08,1.09,4.84.59,2.23-.63,4.57-.83,6.89-.81,2.79.03,5.55.44,8.27,1.12.45.11.85.08,1.28-.07,2.31-.83,4.43-2.05,6.55-3.26,2.88-1.63,5.53-3.61,8.22-5.52,1.1-.78,2.22-1.52,3.4-2.17,1.39-.76,2.9-1.06,4.49-.87,1.56.19,2.8.9,3.74,2.17,1.93,2.62,2.74,5.57,2.86,8.79.24,6.28-1,12.27-3.43,18.03-.66,1.56-1.4,3.08-2.11,4.61-.07.15-.14.31-.23.5.23.08.42.15.61.21,2.75.91,5.44,2,7.93,3.5,1.44.87,2.78,1.86,3.9,3.14.98,1.13,1.71,2.39,1.9,3.91.19,1.53-.24,2.91-1.06,4.19-.84,1.31-1.96,2.35-3.21,3.26-2.67,1.94-5.67,3.25-8.77,4.33-1.2.42-2.42.76-3.62,1.16-.26.08-.53.22-.71.41-2.72,2.76-5.73,5.14-9.06,7.11-.05.03-.1.07-.2.15.09.16.17.32.26.48,9.69,16.85,19.39,33.7,29.08,50.56.07.12.13.25.19.37h-1.69ZM33.2,43.23c.28-1.39.55-2.78.84-4.17.31-1.5.59-3.01.99-4.49.85-3.09,1.78-6.16,2.65-9.25.37-1.33.62-2.69.52-4.08-.05-.76-.25-1.48-.69-2.12-.89-1.3-1.79-1.37-2.86-.22-.03.03-.06.07-.09.1-1.46,1.77-2.25,3.81-2.4,6.1-.02.25.02.5.02.75,0,.41-.23.69-.6.7-.42.01-.64-.22-.69-.61-.03-.26-.04-.53-.03-.8.15-2.68,1.08-5.06,2.83-7.1.17-.2.37-.38.58-.55,1.16-.95,2.39-.95,3.53.03.92.79,1.42,1.81,1.61,3,.27,1.68,0,3.32-.44,4.92-1.28,4.65-2.51,9.31-3.46,14.04-.5,2.47-1.03,4.94-1.09,7.47-.08,3.63.52,7.17,1.63,10.62.19.6.5.92,1.08,1.14,2.9,1.08,5.9,1.77,8.94,2.31,5.56.99,11.17,1.47,16.81,1.64,7.85.24,15.68-.02,23.46-1.27,2.85-.46,5.66-1.05,8.37-2.09.22-.08.47-.29.55-.5,1.11-2.85,1.74-5.81,2.02-8.85.31-3.24-.19-6.4-.82-9.56-.98-4.91-2.2-9.77-3.56-14.59-.42-1.48-.7-2.99-.61-4.54.08-1.43.54-2.7,1.63-3.68,1.17-1.05,2.44-1.07,3.64-.06.27.23.53.49.76.77,1.27,1.53,2.05,3.29,2.42,5.23.15.78.15,1.58.16,2.38,0,.44-.31.69-.69.66-.38-.03-.61-.31-.59-.76.12-2.18-.59-4.14-1.75-5.93-.36-.56-.84-1.05-1.34-1.49-.49-.43-.96-.4-1.51-.02-.75.52-1.2,1.27-1.31,2.14-.11.83-.21,1.72-.03,2.51.61,2.73,1.33,5.44,2.05,8.14.52,2,1.15,3.97,1.63,5.97.48,2.02.83,4.06,1.24,6.11.37-.82.78-1.68,1.16-2.55,2.65-6.02,4.06-12.28,3.72-18.9-.14-2.73-.88-5.22-2.46-7.47-.87-1.25-2.05-1.83-3.54-1.86-1.51-.03-2.87.47-4.11,1.27-1.16.75-2.29,1.54-3.4,2.35-3.99,2.94-8.15,5.6-12.68,7.65-.07.03-.12.08-.19.13,1.13.44,2.25.84,3.35,1.29.77.31,1.52.68,2.26,1.04.34.17.46.46.32.83-.13.34-.49.48-.86.33-.16-.06-.31-.15-.47-.22-4.8-2.31-9.87-3.64-15.19-3.82-3.84-.13-7.58.59-11.22,1.78-1.81.59-3.55,1.38-5.32,2.11-.64.26-.98.26-1.19-.14-.21-.41-.02-.72.64-1.04.37-.18.73-.36,1.11-.51,1.38-.56,2.76-1.11,4.15-1.67-.08-.05-.16-.11-.26-.15-3.22-1.46-6.26-3.22-9.18-5.21-2.08-1.42-4.11-2.92-6.18-4.36-1.01-.7-2.08-1.29-3.31-1.52-1.8-.34-3.5-.19-4.72,1.39-1.35,1.75-2.27,3.71-2.53,5.93-.52,4.32-.19,8.59.82,12.82.87,3.66,2.25,7.12,3.87,10.48Zm-.18,4s-.07-.01-.11,0c-3.17,1.08-6.24,2.37-8.96,4.36-1.17.86-2.22,1.84-2.95,3.12-.91,1.59-.91,3.19.01,4.77.27.46.59.89.94,1.29,1,1.15,2.22,2.02,3.51,2.8,2.51,1.51,5.21,2.59,7.99,3.47,6.84,2.18,13.89,3.26,21.02,3.84,9.01.73,18.02.6,27-.46,5.63-.67,11.2-1.69,16.62-3.38,3.33-1.04,6.55-2.32,9.47-4.26,1.14-.76,2.19-1.62,3.04-2.71,1.73-2.2,1.71-4.42-.03-6.6-.92-1.15-2.06-2.05-3.3-2.84-2.59-1.66-5.42-2.78-8.33-3.74-.07-.02-.15-.03-.28-.05,0,.28.02.52,0,.77-.14,1.68-.25,3.37-.44,5.05-.05.47-.02.8.41,1.06.25.15.45.39.64.61,1.13,1.29,1.13,2.78-.07,4-.5.51-1.09.94-1.7,1.31-1.43.87-3.01,1.4-4.6,1.85-5.15,1.46-10.43,2.07-15.75,2.44-7.54.52-15.08.42-22.61-.27-4.79-.44-9.55-1.11-14.21-2.35-2.2-.59-4.38-1.25-6.33-2.45-.75-.46-1.46-1.04-2.04-1.7-.94-1.08-.9-2.41.02-3.52.34-.42.8-.74,1.2-1.12.11-.11.25-.27.24-.4-.12-1.62-.27-3.24-.42-4.89Z"/>
      <path class="cls-2" d="m27.79,120.26c-.28,0-.64-.48-.49-.98.04-.15.13-.29.2-.43,5.16-10.31,10.32-20.62,15.48-30.94.06-.13.12-.26.2-.37.25-.34.57-.42.95-.25.34.15.49.54.37.91-.04.12-.1.23-.16.34-5.17,10.34-10.35,20.68-15.52,31.02-.17.35-.35.68-1.03.69Z"/>
      <path class="cls-2" d="m100.1,119.6c-.18.2-.34.46-.57.59-.3.17-.62.06-.84-.21-.1-.12-.16-.27-.23-.41-5.18-10.34-10.35-20.68-15.52-31.02-.06-.11-.12-.22-.16-.34-.13-.37.02-.76.37-.91.38-.17.71-.08.95.25.08.11.14.25.2.37,5.16,10.31,10.32,20.62,15.48,30.94.1.21.18.42.32.74Z"/>
      <path class="cls-2" d="m63.81,110.39c.07-3.3.13-6.6.21-9.9,0-.22.03-.52.17-.65.18-.17.51-.31.73-.26.22.05.41.33.56.54.07.11.03.3.03.46-.13,6.46-.27,12.92-.4,19.38,0,.14,0,.28-.01.42-.03.53-.31.84-.75.85-.46,0-.75-.34-.74-.89.06-3.03.12-6.07.19-9.1,0-.28,0-.56,0-.84,0,0,0,0,.01,0Z"/>
      <path class="cls-2" d="m81.13,36.72c6.46,0,11.72,5.26,11.71,11.72-.01,6.45-5.24,11.68-11.7,11.69-6.47,0-11.71-5.24-11.71-11.72,0-6.45,5.24-11.68,11.69-11.69Zm-.68,18.68c3.31,0,6-2.7,6-6.01,0-3.31-2.7-6-6.01-6.01-3.33,0-6.03,2.71-6.02,6.04.01,3.32,2.7,5.99,6.03,5.98Z"/>
      <path class="cls-2" d="m50.64,36.72c6.47-.01,11.71,5.23,11.72,11.71,0,6.45-5.23,11.68-11.68,11.7-6.46.01-11.72-5.24-11.72-11.71,0-6.44,5.24-11.69,11.69-11.7Zm6.73,12.67c0-3.32-2.69-6.01-6-6.01-3.31,0-6.01,2.69-6.02,5.99-.01,3.33,2.69,6.04,6.03,6.03,3.32,0,6-2.69,6-6.01Z"/>
    </g>
  </g>
</svg>